PathFileType  4	(X/Y/Z) C:\Users\antoi\Documents\MyRepositories\mobilecap\ResultsAnalysis
DataRate	CameraRate	NumFrames	NumMarkers	Units	OrigDataRate	OrigDataStartFrame	OrigNumFrames
100.0	100.0	7	51	mm	100.0	74	147
Frame#	Time	r_knee			r_shank_antsup			r_ankle			r_calc			r_5meta			r_toe			L_knee			L_shank_antsup			L_ankle			L_calc			L_5meta			L_toe			r_sh2			r_sh3			r_sh4			L_sh2			L_sh3			r_thigh1			r_thigh2			r_thigh3			r_thigh4			r_thigh5			L_thigh1			L_thigh2			L_thigh3			L_thigh4			r.ASIS			r.PSIS			L.ASIS			L.PSIS			C7			R_Shoulder			L_Shoulder			R_Sternum			L_Sternum			R_humerus			R_elbow_med			R_elbow_lat			R_forearm			R_wrist_radius			R_wrist_ulna			L_humerus			L_elbow_med			L_elbow_lat			L_forearm			L_wrist_radius			L_wrist_ulna			R_HJC			L_HJC			R_HJC_reg			L_HJC_reg			
		X1	Y1	Z1	X2	Y2	Z2	X3	Y3	Z3	X4	Y4	Z4	X5	Y5	Z5	X6	Y6	Z6	X7	Y7	Z7	X8	Y8	Z8	X9	Y9	Z9	X10	Y10	Z10	X11	Y11	Z11	X12	Y12	Z12	X13	Y13	Z13	X14	Y14	Z14	X15	Y15	Z15	X16	Y16	Z16	X17	Y17	Z17	X18	Y18	Z18	X19	Y19	Z19	X20	Y20	Z20	X21	Y21	Z21	X22	Y22	Z22	X23	Y23	Z23	X24	Y24	Z24	X25	Y25	Z25	X26	Y26	Z26	X27	Y27	Z27	X28	Y28	Z28	X29	Y29	Z29	X30	Y30	Z30	X31	Y31	Z31	X32	Y32	Z32	X33	Y33	Z33	X34	Y34	Z34	X35	Y35	Z35	X36	Y36	Z36	X37	Y37	Z37	X38	Y38	Z38	X39	Y39	Z39	X40	Y40	Z40	X41	Y41	Z41	X42	Y42	Z42	X43	Y43	Z43	X44	Y44	Z44	X45	Y45	Z45	X46	Y46	Z46	X47	Y47	Z47	X48	Y48	Z48	X49	Y49	Z49	X50	Y50	Z50	X51	Y51	Z51	

74	0.73000000	546.78784	429.28976	-70.52739	497.82061	375.60531	-48.16859	247.65169	205.74465	-112.21100	195.43508	246.78487	-162.32300	241.45294	85.94717	-92.22387	292.29525	62.35221	-137.67208	747.26441	451.91885	-362.12145	783.31471	396.02765	-359.79877	811.19113	86.16157	-336.65196	743.86603	56.29171	-292.27189	910.55911	43.63073	-350.20112	953.97841	77.63307	-295.71497	407.14116	307.44397	-55.21158	456.79801	432.36577	-75.87429	361.04904	367.40466	-88.80413	699.35264	382.13136	-391.26116	731.52442	264.00781	-388.48472	688.44911	720.09058	-77.46733	674.21531	608.09346	-61.04581	613.63120	597.35132	-34.66582	580.42551	736.33160	-41.97235	561.93490	621.41300	-47.50811	771.45796	746.04883	-380.88687	791.15182	606.34384	-370.31461	663.86607	725.60206	-416.77761	690.91714	585.24464	-399.76580	701.06433	874.69320	-85.98224	531.87079	893.25181	-184.12943	743.98333	901.72314	-340.85877	544.10908	896.83224	-291.39278	570.08844	1358.42608	-285.41827	650.55021	1340.09361	-130.05852	614.53387	1255.06880	-435.42369	687.16502	1275.80861	-261.38190	681.88731	1265.20898	-303.27992	694.57802	1112.52771	-29.50111	630.42387	1004.50956	-36.34686	684.44348	1030.40178	6.70857	745.72307	923.24614	-14.04037	775.12470	808.46110	-27.34094	754.97249	800.45343	10.62409	654.06695	1124.26016	-467.67907	613.67307	910.40478	-416.39789	621.19636	918.38376	-478.67151	683.65742	831.20390	-501.89000	722.30015	711.10697	-494.97821	688.69007	695.33185	-498.34104	646.66675	800.13889	-130.83349	679.67294	822.61345	-327.06108	650.40910	801.52929	-130.87114	669.84014	807.21191	-301.16580	
75	0.74000000	569.43352	427.42476	-69.58327	520.51435	374.22776	-47.00012	265.30564	213.29703	-111.90821	216.17552	257.53103	-162.60879	253.08065	94.04287	-91.70751	302.92762	67.18737	-136.52557	752.59552	453.78197	-364.63775	787.56685	396.94131	-362.34936	811.14624	86.05492	-337.71318	743.70690	56.40168	-292.67583	910.60828	43.30151	-350.46150	954.07443	77.32007	-296.05496	427.96370	308.61223	-54.51468	481.09059	432.15231	-73.88657	383.32891	369.84452	-87.48001	703.29300	384.30563	-393.48795	733.55997	265.71240	-390.52637	702.03367	721.57100	-78.74792	691.49611	609.29177	-61.36724	630.96503	597.00853	-35.24840	593.39534	735.02413	-44.52058	578.77419	619.60685	-48.80177	782.69973	748.25082	-382.88516	800.60765	608.21597	-372.52584	675.31534	729.32569	-419.38042	700.03480	588.48592	-402.32208	712.13462	876.07769	-87.94326	543.12129	893.86923	-184.96399	755.30164	905.97009	-342.13906	555.30038	899.22205	-292.11038	581.90273	1359.67823	-288.35860	661.76199	1342.90003	-132.90413	626.67050	1255.09641	-437.17674	698.81668	1277.24778	-263.45429	693.63769	1266.16749	-305.19135	704.65522	1115.92120	-30.98073	639.66032	1008.53972	-37.50306	693.66385	1034.33605	5.85910	753.36778	925.89219	-12.39715	781.20992	810.44698	-22.83141	760.32678	803.38170	15.00229	667.46811	1124.82872	-468.34249	628.90540	910.63923	-416.91232	636.62645	918.65277	-479.25934	699.39892	831.69559	-502.11848	738.05910	711.60799	-495.09432	704.42695	695.83688	-498.69809	658.72734	801.39732	-133.03586	691.35069	826.28686	-329.06634	662.80190	802.27137	-133.88701	682.12601	810.76182	-303.88817	
76	0.75000000	592.51336	426.18014	-68.87980	543.82457	373.17893	-46.14017	284.13551	220.78872	-111.89263	237.21110	267.10530	-163.14893	267.55915	102.42830	-90.79953	316.36369	72.88127	-135.18632	757.34976	455.19353	-366.68942	791.31457	397.63903	-364.47075	811.15550	86.00506	-338.66583	743.60571	56.52398	-293.03179	910.63271	43.01333	-350.69581	954.22235	76.92118	-296.28390	449.61725	309.97259	-54.03653	505.85638	432.17073	-71.83369	406.26393	372.46138	-86.12767	706.78382	386.09004	-395.27716	735.38181	267.12213	-392.18817	715.25265	723.59178	-79.89216	708.57408	611.10884	-61.68829	648.08704	597.17583	-35.95991	606.06092	734.10757	-47.05897	595.46745	618.37714	-50.16428	793.31945	749.73451	-384.41608	809.32993	609.42987	-374.24692	686.13645	732.42883	-421.68794	708.37343	591.16779	-404.47700	722.76569	877.89986	-89.72280	554.04196	894.65379	-186.09891	766.26906	909.80410	-343.28402	566.22668	901.33646	-293.10422	593.70120	1361.12123	-290.98258	672.64127	1345.86796	-135.38839	638.81992	1255.66717	-438.63396	710.40647	1278.99893	-265.09613	705.41806	1267.46488	-306.70294	714.45916	1119.44818	-32.21206	648.66897	1012.73376	-38.62770	702.57518	1038.42305	5.16925	760.88036	928.91831	-10.67175	787.27760	812.85191	-18.38941	765.71830	806.72990	19.30081	680.67328	1125.90535	-468.95166	643.94608	911.41841	-417.35198	651.76536	919.49721	-479.76732	714.98058	832.78425	-502.25117	753.81615	712.76847	-495.07508	720.17080	696.95960	-498.96063	670.31687	802.97237	-134.96814	702.80745	829.59358	-330.82272	674.70645	803.43770	-136.46957	694.02774	814.03359	-306.14965	
77	0.76000000	615.86488	425.65437	-68.41948	567.50996	372.65944	-45.59660	304.00756	228.01027	-112.11980	258.31769	275.32898	-163.91954	284.86832	110.71393	-89.54984	332.74825	79.14468	-133.65653	761.68010	456.16251	-368.17415	794.71874	398.13233	-366.00973	811.27836	86.03676	-339.41109	743.59222	56.66581	-293.30395	910.66396	42.74537	-350.87261	954.48308	76.34578	-296.34779	471.86923	311.65359	-53.79007	530.83506	432.60664	-69.92069	429.65507	375.35326	-84.88055	710.00642	387.50386	-396.57462	737.17370	268.24591	-393.38668	728.20404	726.10811	-80.94237	725.37021	613.51360	-62.01186	664.93247	597.87070	-36.79374	618.53544	733.61455	-49.56769	611.97630	617.80745	-51.55710	803.28910	750.51066	-385.46489	817.32398	610.01855	-375.44841	696.27203	734.85684	-423.63215	715.95080	593.25854	-406.11929	733.02230	880.08891	-91.25622	564.70216	895.58249	-187.64993	776.97807	912.93255	-344.30313	576.99261	903.08123	-294.50828	605.47918	1362.72075	-293.31348	683.20536	1348.86916	-137.48147	650.99036	1256.69632	-439.85406	721.91958	1280.98176	-266.31768	717.23967	1269.05531	-307.84297	723.93837	1122.99046	-33.03107	657.39147	1016.93221	-39.55225	711.11956	1042.50340	4.77316	768.28618	932.18579	-8.80109	793.37536	815.53958	-14.05528	771.22918	810.34822	23.49647	693.70657	1127.36623	-469.54331	658.72640	912.62293	-417.76612	666.57004	920.79105	-480.23265	730.38003	834.35333	-502.30303	769.57045	714.47616	-494.91740	735.93272	698.58098	-499.12168	681.41250	804.79876	-136.60004	714.12037	832.29806	-332.31124	686.11926	804.91024	-138.52758	705.59963	816.79749	-307.90346	
78	0.77000000	639.32309	425.88184	-68.18374	591.35093	372.83617	-45.34221	324.78482	234.71894	-112.51666	279.44563	282.12189	-164.86802	304.72608	118.49679	-88.07098	351.94394	85.57495	-131.96743	765.67006	456.76777	-369.09261	797.83466	398.46957	-366.96378	811.51660	86.15176	-339.90594	743.66000	56.82307	-293.48048	910.71379	42.49492	-350.97828	954.85471	75.60366	-296.25153	494.51279	313.74701	-53.75905	555.77910	433.61513	-68.39219	453.30729	378.53422	-83.88239	712.98525	388.62555	-397.34808	738.92286	269.14108	-394.07422	741.01004	729.04707	-81.95133	741.87234	616.44203	-62.35575	681.51209	599.07873	-37.71625	630.96964	733.54028	-51.99323	628.31885	617.89705	-52.92074	812.58192	750.70237	-386.05544	824.63542	610.11740	-376.13737	705.69912	736.65337	-425.19240	722.83550	594.81912	-407.17090	742.99006	882.54671	-92.52698	575.16029	896.66203	-189.65785	787.50469	915.18088	-345.23438	587.67025	904.45024	-296.38204	617.22818	1364.44300	-295.39838	693.48687	1351.77828	-139.18506	663.19639	1258.09478	-440.91555	733.32690	1283.10969	-267.15939	729.08996	1270.88360	-308.66231	733.05978	1126.44700	-33.31660	665.79058	1020.98063	-40.13718	719.25690	1046.42685	4.77238	775.59372	935.54262	-6.72362	799.55574	818.37818	-9.84245	776.91743	814.07353	27.57548	706.60511	1129.10075	-470.13239	673.16877	914.13990	-418.20800	681.02823	922.40772	-480.69440	745.58714	836.28478	-502.28402	785.31128	716.61178	-494.61329	751.71510	700.58096	-499.16964	692.01319	806.80838	-137.94411	725.31757	834.27472	-333.55200	697.04869	806.57768	-140.04465	716.87273	818.92240	-309.17174	
79	0.78000000	662.73674	426.82987	-68.13933	615.17106	373.80604	-45.32374	346.34306	240.66670	-113.00348	300.67463	287.47174	-165.92811	326.67158	125.41189	-86.50448	373.57495	91.72646	-130.18183	769.33399	457.11934	-369.53603	800.63075	398.70932	-367.46791	811.83582	86.32412	-340.16228	743.78338	56.98813	-293.56940	910.78326	42.25869	-351.01999	955.29667	74.76429	-296.04968	517.38739	316.27559	-53.89877	580.48067	435.26846	-67.46885	477.04832	381.93071	-83.26001	715.61653	389.55601	-397.58854	740.46753	269.88257	-394.24363	753.78631	732.31737	-82.96878	758.13207	619.80509	-62.75258	697.90814	600.75768	-38.66791	643.52116	733.84214	-54.24046	644.55888	618.55605	-54.18506	821.19889	750.48065	-386.25414	831.32366	609.89388	-376.34897	714.42974	737.92960	-426.39604	729.11450	595.96732	-407.60658	752.76339	885.16197	-93.56873	585.45999	897.91190	-192.07047	797.90205	916.51315	-346.13522	598.29064	905.50983	-298.68689	628.93831	1366.24889	-297.29922	703.52160	1354.48915	-140.53299	675.45931	1259.77888	-441.90535	744.59963	1285.30065	-267.68915	740.92951	1272.88363	-309.22871	741.80783	1129.74171	-33.01296	673.86287	1024.74466	-40.29836	726.96991	1050.07465	5.21911	782.79142	938.84833	-4.38823	805.85942	821.25428	-5.73912	782.80481	817.74969	31.53456	719.40660	1131.01686	-470.72783	687.20696	915.87371	-418.72687	695.15779	924.23441	-481.18779	760.60323	838.47193	-502.19964	801.02109	719.06414	-494.14870	767.50841	702.85151	-499.08681	702.15098	808.93508	-139.04476	736.37871	835.51789	-334.59247	707.52564	808.34581	-141.08016	727.85845	820.38862	-310.03874	
80	0.79000000	685.98172	428.40781	-68.24431	638.84409	375.57310	-45.47474	368.57463	245.63603	-113.51167	322.13412	291.39927	-167.03419	350.19366	131.17534	-84.98135	397.14206	97.19383	-128.38244	772.64925	457.32559	-369.64607	803.04459	398.90202	-367.73016	812.18820	86.51202	-340.23000	743.93241	57.15514	-293.58969	910.87011	42.02732	-351.02068	955.75584	73.91491	-295.82054	540.38358	319.17498	-54.14730	604.79100	437.52014	-67.26826	500.73813	385.39564	-83.09639	717.75343	390.39185	-397.31824	741.60397	270.54193	-393.92920	766.61981	735.82002	-84.03570	774.24596	623.50195	-63.24281	714.25500	602.84224	-39.57280	656.32446	734.44532	-56.18494	660.78408	619.62383	-55.28178	829.18685	750.00766	-386.17173	837.44672	609.49204	-376.14657	722.50125	738.82608	-427.30528	734.87164	596.83752	-407.46733	762.43027	887.82551	-94.45465	595.63145	899.34172	-194.74537	808.19431	917.01952	-347.07075	608.84419	906.37308	-301.28563	640.59428	1368.09451	-299.07869	713.34286	1356.92521	-141.58689	687.80274	1261.67619	-442.90433	755.72734	1287.48380	-267.99561	752.69748	1274.97701	-309.61976	750.17791	1132.82469	-32.13960	681.64022	1028.12423	-40.02030	734.26392	1053.37591	6.11070	789.85582	941.99736	-1.76448	812.30455	824.08374	-1.71576	788.87498	821.24925	35.38281	732.14002	1133.04165	-471.34705	700.80708	917.75090	-419.36048	708.99761	926.17899	-481.74184	775.43697	840.82729	-502.05304	816.67972	721.73937	-493.50611	783.29128	705.30445	-498.85131	711.89351	811.11694	-139.96092	747.24443	836.12503	-335.49185	717.61387	810.13110	-141.75698	738.55770	821.27680	-310.63586	
